<?xml version="1.0" encoding="utf-8"?>
<!-- Generator: Adobe Illustrator 27.2.0, SVG Export Plug-In . SVG Version: 6.00 Build 0)  -->
<svg version="1.1" id="svg3245_-_copie" xmlns="http://www.w3.org/2000/svg" xmlns:xlink="http://www.w3.org/1999/xlink" x="0px"
	 y="0px" viewBox="0 0 400 400" style="enable-background:new 0 0 400 400;" xml:space="preserve">
<style type="text/css">
	.st0{fill:#054916;}
</style>
<path id="path3826_00000144298582502864981240000015968672729737723784_" class="st0" d="M0,200V0h200h200v200v200H200H0L0,200z
	 M190.9,340c1.7-3.9,3.3-7,3.5-7c0.5,0-2.2,11.9-3,13.1c-0.9,1.5,28.5,1,41.7-0.7c15.1-1.9,29.7-5.2,44.7-10.2l11.4-3.8l5.3-9
	c17.5-29.8,21.1-56.7,10.5-79.3c-3.9-8.3-11.6-18.7-18.6-25.1l-5.5-5l3.2-6.1c5.8-10.9,14.1-18.7,23.9-22.3c5.1-1.9,5.7-2.6-5.2,5.7
	l-5.1,3.9l0.5,7.1c0.7,10.5,2.6,13.4,13.4,20.5c16.4,10.8,27.7,25.5,31.5,41.1c1.6,6.6,1.7,26.9,0.1,32.4c-1.3,4.4-0.9,5.4,1.2,3.7
	c3.2-2.7,4.8-25.3,2.5-36.3c-0.6-2.9-2.9-9.1-5.1-13.7c-6-12.5-15.7-21.7-35.6-33.8c-5.8-3.5-8.4-18.8-3.9-23
	c5.3-4.9,14.8-8.1,26.6-9l8.3-0.6l-0.6-3.1c-1.4-6.8-10.1-11.6-21-11.6c-8.5,0-22.9,3.1-40.2,8.6c-1,0.3,1.7-2.8,6.1-7
	c4.4-4.2,7.7-7.7,7.5-8c-0.2-0.2-6.5,2-13.8,5c-7.4,3-13.6,5.2-13.8,5c-0.9-0.9,3.5-9.2,7.5-14.3c3.1-3.9,6-6.1,11.4-8.8
	c12.1-6,24.6-6.8,43.4-2.9c4.2,0.9,7.8,1.4,8,1.2c1.6-1.6-14.2-17.8-21.5-22.2c-9.1-5.5-15.2-7.1-26.6-7c-8.4,0.1-11.4,0.6-18.8,3.2
	c-7.5,2.6-8.7,2.8-8.3,1.4c5.6-18.4,4.5-28.6-4-38.1c-7-7.8-21.5-13.9-37.4-15.8l-5-0.6v3.1c0,3.8-0.7,3.8-6.8,0.8
	c-19.4-9.7-41-10.5-54-2l-2.3,1.5l3.5,4.1c3.6,4.3,4.4,7.5,2.3,9.6c-1.7,1.7-3.9,1.5-15.7-1.4c-14.2-3.6-26.1-3.2-33.9,1.1
	c-8.7,4.7-8.7,4.9-0.4,12.3c4,3.6,7.2,7.3,7.2,8.3c0,3.5-6,4.5-27.5,4.4c-19.2-0.1-33.8-1.7-41-4.4c-2.3-0.9-2.5-0.7-2.4,1.8
	c0,3.7,4,13.1,7.4,17.5c3.9,5.1,13.4,11.2,21.6,13.8l6.9,2.2l-8,4.5C53,152.7,47.1,159.5,48.5,166c0.7,3.4,7.5,10,12.3,11.9
	c1.8,0.7,3.2,1.7,3.2,2.1c0,0.4-1,5.2-2.2,10.6c-3,13.6-3.2,36.5-0.4,43.9c4.1,10.8,11.2,16.6,22.7,18.5c7.8,1.3,12.9,0.9,27.2-2.2
	l9.8-2.1l2.7,2c3.5,2.6,6.9,7.7,8.2,12.2c1.7,6,1.2,24.1-0.9,35c-1.1,5.5-3.6,15.5-5.6,22.2c-3.4,11.6-3.5,12.4-1.9,13.6
	c3.4,2.5,5,1.5,8.2-5.5c10.4-22.6,16-51.8,16.3-85.2c0.1-11.6,0.3-13.3,0.9-8.5c0.4,3.3,0.8,16.1,0.8,28.5
	c0.1,29.4-2,44.6-10.5,73.9c-0.6,1.9-0.3,2.3,1.2,2c1.2-0.2,2.3-1.9,3.2-4.9c2.5-8.5,6.2-26.9,8.2-40.7l2-13.8l-0.5,11
	c-0.6,12.7-3,32.9-5,42.8c-1.7,8.3-1.7,7.7-0.1,7.7c1.9,0,6.9-17.4,9.8-34c1.4-8.1,1.9-47.2,0.7-62l-0.7-8.5l1.4,6.5
	c6.1,29.2,6.2,69.3,0.2,99.3c-0.1,0.6,1.3,1.4,3.1,1.8c3.9,0.8,4.4,0.2,6.1-8.5c4.7-24,4.2-56.7-1.3-84.9c-2.4-12.6-1.1-9.9,2.4,4.6
	c5.8,24.5,7.4,37.8,7.5,62.8c0,12.4-0.3,23.7-0.7,25.2c-0.7,2.5-0.5,2.8,1.8,2.8c2.2,0,3.1-1.1,6.5-8.2c2.2-4.5,3.9-7.8,3.9-7.2
	c0,1-2.3,10.6-3.6,14.7c-0.3,1.1,0,1.8,0.9,1.8C187.1,347,189.1,344,190.9,340L190.9,340z M218.7,339.4c2.2-3.9,2.5-5.4,2-10.2
	c-0.3-3.1-1.3-7.5-2.2-9.7l-1.7-4l-1.7,6.6c-1.7,6.7-5.5,13-9.1,14.9c-1.9,1-1.9,0.9-0.3-3.2c1.1-3,1.6-7.7,1.6-15.6
	c0-11.5-1.4-16.6-2.6-9.8c-1,5.3-4.3,12.3-7.8,16.2c-4.4,5-5.1,4.3-2.1-2.3c2.3-5,2.7-7.3,3-17.2c0.3-11.9-0.4-12.4-2.7-2
	c-1.4,6.3-10.7,26-14.4,30.5l-2.5,3l2.3-8c4.5-15.5,5.8-27.1,5.2-45.3c-0.7-22.6-5.1-41.3-14.7-62.6c-1.6-3.6-2.8-6.6-2.6-6.6
	s2.3,3.3,4.6,7.2c10.8,18.4,18.2,27.8,22.8,29c2.9,0.8,6.7-2.4,8.2-6.8c2.1-6.5-0.9-11.4-16.6-26.5c-30.2-29-30.4-29.3-14-19.2
	c10.2,6.3,15.6,7.5,22,4.8l3.8-1.6l-2.6,3.4c-3.1,4.1-2.4,4.6,6.4,4.6c9.6,0,14.6-2.9,18.1-10.5l1.8-4l0,5.8c0,6.1-2,11-4.9,12.2
	c-3.5,1.5-9.2,2.1-13.5,1.4c-5-0.8-5.6-0.1-2.7,2.9c1.9,1.9,6.1,3,18.6,5c5.6,0.9,5.3,0.9-4.7,0.8c-6.9-0.1-10.5,0.2-10.1,0.8
	c2,3.7,3.8,4.5,9.2,4.5c10.3,0,23.6-4.6,33.2-11.5c2.7-1.9,5.1-3.5,5.3-3.5s-2.2,4.2-5.5,9.2c-7.7,11.8-16,28.2-19.2,37.8
	c-11.6,34.1,1.3,56.5,38.3,66.8c11,3.1,11.2,3.5,2.9,7c-9.7,4.1-39.4,10.2-50.1,10.2l-3.7,0L218.7,339.4z M283.4,316
	c16.9-24.9,19.9-48.4,9.2-71.5c-2-4.2-5.4-10.5-7.6-13.8l-4.1-6.1l3.9,4.3c5.6,6.3,12.9,18.7,15.8,27.2c7.1,20.4,1.7,41.9-14.9,59.3
	l-6.8,7.1L283.4,316z M267.7,305.8c3-3.3,6.8-10.5,8.9-16.8c1.5-4.3,1.9-8.4,1.8-18.5c0-13.9-2.2-24.6-7.9-38.6
	c-1.4-3.5-2.4-6.4-2.2-6.7c0.5-0.5,11.7,16.9,14.4,22.2c5.3,10.5,7.5,18.8,7.6,28c0.1,7.9-0.2,9.7-2.7,14.7
	c-3.2,6.5-8.5,11.7-15.7,15.3C265.9,308.6,265.1,308.6,267.7,305.8L267.7,305.8z M78.7,247.3c-5.9-2.2-10.4-6.4-13.2-12.3
	c-3.1-6.6-2.9-27.6,0.3-41c1.3-5.2,2.6-9.8,3-10.2s0.8,4.8,0.9,11.5c1,44.9,17.2,53.5,47.1,25.1c5.5-5.3,10.1-9.3,10.1-9.1
	s-0.9,4.3-2,8.9c-1.1,4.6-2,11.1-2,14.5c0,7.3,0.3,7-12.6,10.8C98.5,249,85.3,249.7,78.7,247.3L78.7,247.3z M196.7,241.9
	c-0.7-5.2-5.4-12.9-13.4-21.9c-3.5-3.9-6.4-7.4-6.4-7.7c0-1,9.4,7.3,15.6,13.8c9.1,9.5,11.3,14.8,7.6,18.2
	C197.6,246.7,197.3,246.5,196.7,241.9L196.7,241.9z M134.4,237.5c-1.6-3.3-1.9-6.1-1.9-16c0.1-11.3,0.3-12.6,3.8-22.5
	c5.3-14.9,5.3-14.7,2.2-16.1c-2.3-1-3-0.9-5.4,0.8c-1.5,1.1-4.2,4.2-6,6.9c-2.9,4.2-3.2,4.5-2.6,1.9c1.2-5,5.1-14.4,7.6-18
	c2.6-3.7,8.5-7.5,11.8-7.5c2.5,0,2.8-2.6,0.6-5.8c-1.2-1.7-2.5-2.2-5.9-2.2c-2.4,0-5.6,0.4-7.2,1c-2.7,1-2.7,0.9,0.7-2
	c4.6-4,12.9-7,19.4-7c5.8,0,9.1-2.2,8.4-5.7c-0.5-2.5-4.9-2.8-12.9-1c-3.5,0.8-6.5,1.3-6.7,1.1c-0.6-0.6,8.1-5.4,12.6-6.9
	c2.3-0.8,7.4-1.9,11.3-2.5c8.1-1.1,8.7-1.5,7-3.6c-1.5-1.8-7.2-3.5-12-3.6c-3.1,0-3.3-0.2-1.5-1.2c2.4-1.4,20.7-1.7,25-0.4l3,0.9
	l-3.5-3.8c-1.9-2.1-5.8-4.8-8.5-6.1l-5-2.4l5.5,0c6.5,0,19.1,2.7,33.2,7c5.6,1.7,12.5,3.2,15.3,3.3l5,0.1l0.3-5.3
	c0.4-6.7-2.1-12.2-9-19.7c-2.7-3-4.7-5.5-4.3-5.5c0.4,0,3,1.5,5.9,3.3c4.8,3.1,8,6.2,11.5,11.3c1.1,1.6,1.2,1.3,0.7-2.6
	c-0.6-4.9-4.5-12.3-7.3-13.9c-2.7-1.6,0.3-1.2,4.7,0.5c4.3,1.7,7.1,5.1,8.1,9.9l0.6,3l1.7-3.2c0.9-1.8,1.7-4.2,1.7-5.4
	c0-6.5-8.2-16.2-21.1-24.8c-3.4-2.3-5.7-4.1-5.1-4.1c2.2,0,18.9,6.3,23.2,8.7c7.3,4.1,14.7,12,16.6,17.6c2,5.9,1.4,16.5-1.2,23.9
	c-3.3,9.5-13.5,12.5-45.9,13.4c-17.9,0.5-20.7,0.8-19.1,1.9c1,0.7,1.7,1.5,1.4,1.8s-5.1,1.4-10.9,2.5c-10.3,2.1-13.4,3.1-9.3,3.1
	c4.5,0,2.9,2-5.3,7c-4.7,2.8-8.3,5.5-8,6s2.3,1.1,4.5,1.5c2.2,0.4,4,0.8,4,0.9s-2,2.3-4.4,4.9c-8.5,9.1-16.1,29.3-21.1,56.3
	c-1.4,7.6-2.9,15.7-3.4,17.9l-0.8,4L134.4,237.5z M157.1,234.4c0-1.2,0.3-1.4,0.6-0.6c0.3,0.7,0.3,1.6-0.1,1.9
	C157.3,236.1,157,235.5,157.1,234.4L157.1,234.4z M232.5,210.6c-3.3-3.3-4.1-8.5-2.2-14.1c1.7-5.1,7.3-13.1,11.5-16.7
	c1.5-1.3,4.1-4.8,5.7-7.8c3.7-6.8,14.2-18.1,20.1-21.5c2.5-1.5,4.7-2.4,5-2.2c0.2,0.2-1.5,3.1-4,6.3c-5.4,7.3-9.9,15.9-9.5,18.4
	c0.3,1.7,1,1.6,9.2-2.1c13.5-6,13.6-6,7.3,1c-3.1,3.5-5.5,6.5-5.3,6.7s5.7-1,12.1-2.7c32.8-8.4,46.2-7.9,49.8,2.1
	c0.5,1.4,0,1.5-5.6,0.1c-7.5-1.8-19.5-1.1-31.7,1.8c-10.4,2.5-13.9,3.6-36.3,11.6c-9.8,3.5-18.4,6.4-19.2,6.4c-2,0-1.9-1.9,0.5-8.8
	c1.6-4.6,1.7-5.3,0.4-3.7c-2.8,3.5-6.5,12.3-6.6,15.6c-0.2,6.3,5.3,7.1,17.9,2.8c3.1-1.1,5.8-1.8,6-1.5s-1.6,2-4,4
	C245.3,213.3,236.9,215,232.5,210.6L232.5,210.6z M269.6,206.1l-5.9-2.6l3.9-1.9c2.1-1,5.4-2.5,7.2-3.3l3.4-1.4l-2.2,3.1
	c-2.7,3.8-2.2,3.8,3.7,0.1c2.6-1.6,4.9-2.8,5.1-2.5c0.6,0.6-5.4,8.5-7.5,10C275.8,208.5,274.5,208.3,269.6,206.1L269.6,206.1z
	 M180.5,194.6c-15.6-7.6-22.1-15.2-19.5-23c1.1-3.4,7.7-10.2,11.9-12.5c3-1.6,2.1-2.5-4.4-4c-3.1-0.7-5.3-1.6-5-2.1
	c0.8-1.3,16-6,19.5-6c4,0,4.5-1.5,1-3c-1.6-0.7-3-1.6-3-2c0-1,15-2.2,18.8-1.4c4.6,0.9,3.9-0.4-1.4-2.8c-2.5-1.1-4.4-2.2-4.2-2.4
	c0.2-0.2,2.6,0.1,5.3,0.7c8.6,1.8,29,1.2,37.2-0.9c4-1.1,7.2-1.7,7.2-1.3c-0.1,1.5-4.2,5.2-6.7,6.1c-1.5,0.5-8.1,2.5-14.6,4.5
	c-11.2,3.4-14.1,5.5-7.7,5.5c1.6,0,5.9-1.1,9.7-2.5c3.7-1.3,6.9-2.3,7.1-2.1s-1.3,1.4-3.4,2.6c-4.5,2.8-3.2,3.5,2.5,1.6l4.2-1.4
	l-0.7,4.3c-0.4,2.5-0.1,6.4,0.6,9.3c3.2,12.5-6.4,25.5-22.5,30.4c-3.9,1.2-9.6,3.2-12.8,4.5c-3.2,1.3-6.8,2.3-8,2.3
	C190.5,199,185.4,197,180.5,194.6L180.5,194.6z M181.9,185.2c-1.9-2.1-3.9-4.7-4.6-5.8c-1.1-1.8-1.2-1.8-1.2-0.1
	c-0.1,2.9,1.8,5.6,5.3,7.7C185.7,189.7,185.7,189.6,181.9,185.2L181.9,185.2z M169.7,182.9c-4-6.5-4.3-11.6-0.7-15.5l2.5-2.8
	l-2.5,1.6c-1.4,0.9-3.3,2.9-4.3,4.6c-1.7,2.8-1.7,3.3-0.2,6.9c1.3,3.1,7,10.3,8.2,10.3C172.8,188,171.5,185.7,169.7,182.9
	L169.7,182.9z M208.1,186.4c8.9-2.5,14.6-8,16.3-15.9l0.6-3l-1.6,3c-3.9,7.2-11.5,13.1-20.8,16C196.6,188.4,201.4,188.3,208.1,186.4
	z M204,183.1c1.9-0.5,0.8-0.9-4.3-1.4c-7.5-0.7-14.9-3.6-18.7-7.2c-1.6-1.6-3-2.1-3.8-1.6c-1.7,1.1,4.1,7.8,8.3,9.7
	C188.7,184,199.8,184.3,204,183.1L204,183.1z M211.4,175.6c6.7-2.8,9.5-10.1,6.5-17.3c-1.1-2.8-1.2-2.7-1.9,2.4
	c-0.8,5.6-3.1,9.6-8,13.7C204.4,177.3,206,177.9,211.4,175.6z M204.6,172.3c3.3-2.2,6.4-8.3,7.1-14.2c0.6-4.7,0.5-4.8-2.8-6.2
	c-5.2-2.2-14.1-1.8-17.5,0.6c-3.6,2.6-7.3,9.9-7.3,14.2c0,3,0.5,3.6,4.2,5.3C193.5,174.4,201.2,174.6,204.6,172.3z M194.7,170.3
	c-6.4-3.3-7.4-11.1-2.1-15.3c3.7-2.9,7.9-2.6,11.4,0.9c3.1,3.1,3.5,5.3,1.9,9.7c-0.9,2.4-0.9,2.6,0.5,1.4c1.3-1.1,1.5-1,0.9,0.4
	c-0.8,2-5.6,4.6-8.1,4.5C198.3,171.8,196.3,171.1,194.7,170.3z M201.8,167.4c5.1-3.6,0.8-11.8-5-9.5c-4.1,1.6-5,5.9-1.8,9.1
	C197.4,169.4,198.8,169.5,201.8,167.4z M196.4,165.9c-0.4-0.6,0-1.5,0.9-2c0.9-0.5,1.6-1.6,1.6-2.5c0-2.4,2.5-1,2.8,1.6
	C202.3,166.3,198.1,168.5,196.4,165.9L196.4,165.9z M187.3,169.3c-1.4-0.6-1.7-5.3-0.4-5.3c0.5,0,1.2,0.8,1.5,1.8
	c0.3,1,0.9,2.3,1.2,3C190.2,170,189.4,170.2,187.3,169.3z M208,156c-0.9-1.6-0.8-2,0.5-2c0.9,0,1.5,0.9,1.5,2c0,1.1-0.2,2-0.5,2
	S208.6,157.1,208,156z M269.3,191c4.7-2.6,24.5-9.3,26-8.8c0.6,0.2-5.2,2.6-12.8,5.2C265.3,193.4,264.6,193.6,269.3,191L269.3,191z
	 M235.1,179.9c0.6-1.2,2-4.4,3-7.2l1.8-5.1l0.1,4c0,2.3-0.8,5.4-1.9,7.2C235.8,182.4,233.2,183.4,235.1,179.9L235.1,179.9z M62,171
	c-6.2-2.1-9.4-5.3-8.5-8.4c0.9-3.2,9.7-11.1,17.4-15.6c3.8-2.2,7.1-4,7.4-4s-2.1,2.5-5.4,5.6c-9.4,8.9-10.8,15.6-4.7,22.1
	C70.9,173.6,69.5,173.6,62,171z M236.7,162.3c-0.4-0.4-0.7-2.7-0.7-5.2l0-4.6l8.7,0l8.7,0l-7.8,5.3
	C237.2,163.5,237.6,163.3,236.7,162.3L236.7,162.3z M245.5,150.1c5.6-1,9.5-3.3,13.9-8.1c3-3.3,3.6-3.7,3-1.8
	c-2.2,7.2-7.7,10.9-15.7,10.7C241.5,150.8,241.5,150.7,245.5,150.1L245.5,150.1z M243,145.4c0-0.3,0.9-2.1,2.1-4
	c1.4-2.2,4.5-4.6,9.6-7.3l7.5-3.9l-0.7,3.7c-1,5.3-3.1,8.1-7.9,10.2C249.7,145.9,243,146.7,243,145.4L243,145.4z M286.7,137.5
	c-1.8-2.5-9.7-5.5-14.5-5.5c-1.3,0-2.1-0.4-1.8-1c0.9-1.5,16.5-1.2,22.1,0.5c2.7,0.8,6.3,2.6,7.9,3.9l3,2.4l-4.5,0.7
	c-2.5,0.4-5.8,0.9-7.5,1.1C289.2,139.9,288.1,139.5,286.7,137.5L286.7,137.5z M313.5,137.2c-4.1-0.3-5.5-0.9-8.3-3.7
	c-4.7-4.9-11.9-6.7-26.2-6.7l-11.5,0l6-1.9c4.6-1.5,8.1-1.8,15.1-1.6c8.1,0.3,10,0.8,16.5,4c7,3.5,14.9,9.2,13.9,9.9
	C318.7,137.3,316.3,137.4,313.5,137.2L313.5,137.2z M249.5,131.1c1.6-1.8,3.9-3.7,5-4.3c2.8-1.5,8.5-2.7,8.5-1.7
	c0,2-6.2,6.8-9.5,7.4c-2,0.4-4.4,0.9-5.3,1.3C247.2,134.1,247.7,133,249.5,131.1z M75.8,118.1c-8.7-1.9-25.2-7-24.6-7.6
	c0.2-0.2,3.9,0.5,8.3,1.6c19.5,4.6,38.6,4.6,50.4,0c2.5-1,5.5-2.2,6.6-2.6c3.9-1.5-3.7,5.4-8.3,7.7
	C101.8,120.2,87.5,120.6,75.8,118.1L75.8,118.1z M144.5,95.9c-11.2-4-25.2-6.2-35.3-5.7c-8.2,0.4-8.3,0.4-6-1.4
	c6.6-5.1,18.5-6.2,28.7-2.8c5.5,1.9,21.2,11,21.2,12.4c0,0.3-0.1,0.5-0.2,0.4C152.6,98.8,148.9,97.5,144.5,95.9z"/>
</svg>
